<svg
  width="62px"
  height="60px"
  version="1.1"
  xmlns="http://www.w3.org/2000/svg"
>
  <path
    transform="matrix(1,0,0,1,-111.586,-182.796)"
    d="M111.586,212.118C111.586,208.908 112.133,205.571 113.228,202.107C114.322,198.642 116.09,195.487 118.534,192.643C120.977,189.798 124.168,187.446 128.107,185.586C132.046,183.726 136.823,182.796 142.44,182.796C147.91,182.796 152.597,183.671 156.499,185.422C160.401,187.172 163.61,189.433 166.127,192.205C168.643,194.977 170.485,198.131 171.652,201.669C172.819,205.207 173.403,208.726 173.403,212.227C173.403,215.728 172.819,219.266 171.652,222.84C170.485,226.414 168.643,229.623 166.127,232.468C163.61,235.312 160.401,237.628 156.499,239.415C152.597,241.202 147.91,242.096 142.44,242.096C137.772,242.096 133.541,241.384 129.748,239.962C125.955,238.54 122.71,236.516 120.011,233.89C117.312,231.264 115.233,228.11 113.775,224.426C112.316,220.743 111.586,216.64 111.586,212.118ZM154.204,198.18L136.722,215.663C136.722,215.663 130.785,209.725 130.785,209.725C128.752,207.692 125.451,207.692 123.419,209.725C121.386,211.758 121.386,215.058 123.419,217.091L133.039,226.711C135.073,228.745 138.371,228.745 140.405,226.711L161.57,205.546C163.603,203.513 163.603,200.213 161.57,198.18C159.538,196.148 156.237,196.148 154.204,198.18Z"
  />

  <style>
    svg {
      fill-rule: evenodd;
      clip-rule: evenodd;
      stroke-linejoin: round;
      stroke-miterlimit: 2;
    }

    @media (prefers-color-scheme: dark) {
      path {
        fill: #ffffff;
        fill-rule: nonzero;
      }
    }

    @media (prefers-color-scheme: light) {
      path {
        fill: #000000;
        fill-rule: nonzero;
      }
    }
  </style>
</svg>
